<svg xmlns="http://www.w3.org/2000/svg" version="1.1" xmlns:xlink="http://www.w3.org/1999/xlink" xmlns:svgjs="http://svgjs.dev/svgjs" width="2000" height="1500" viewBox="0 0 2000 1500"><rect width="2000" height="1500" fill="#ed1703"></rect><g transform="matrix(0.75,0,0,0.75,249.09093075397334,446.0548942704629)"><svg viewBox="0 0 396 161" data-background-color="#ed1703" preserveAspectRatio="xMidYMid meet" height="813" width="2000" xmlns="http://www.w3.org/2000/svg" xmlns:xlink="http://www.w3.org/1999/xlink"><g id="tight-bounds" transform="matrix(1,0,0,1,0.2399942809510378,-0.2455282727266308)"><svg viewBox="0 0 395.5199999999999 161.49106001121703" height="161.49106001121703" width="395.5199999999999"><g><svg viewBox="0 0 395.52000000000004 161.49106001121706" height="161.49106001121703" width="395.5199999999999"><g><svg viewBox="0 0 395.52000000000004 161.49106001121706" height="161.49106001121706" width="395.52000000000004"><g id="textblocktransform"><svg viewBox="0 0 395.52000000000004 161.49106001121706" height="161.49106001121706" width="395.52000000000004" id="textblock"><g><svg viewBox="0 0 395.52000000000004 161.49106001121706" height="161.49106001121706" width="395.52000000000004"><g><svg viewBox="0 0 395.52000000000004 161.49106001121706" height="161.49106001121706" width="395.52000000000004"><g transform="matrix(1,0,0,1,0,0)"><svg width="395.52000000000004" viewBox="3.8299999237060547 -35.54999923706055 87.05999755859375 35.54999923706055" height="161.49106001121706" data-palette-color="#ffffff"><path d="M21.73 0L11.79-16.38 8.3-12.16 8.3 0 3.83 0 3.83-35.55 8.3-35.55 8.3-18.38 11.23-22.27 20.8-35.55 26.17-35.55 14.62-19.9 27.08 0 21.73 0ZM50.46 0L47.65-9.28 35.64-9.28 32.88 0 28.29 0 39.74-35.55 43.58-35.55 55.05 0 50.46 0ZM41.65-29.3L36.81-13.13 46.51-13.13 41.65-29.3ZM64.55-35.55L64.55 0 60.08 0 60.08-35.55 64.55-35.55ZM88.86-19.53L88.86-15.7 76.85-15.7 76.85 0 72.38 0 72.38-35.55 90.89-35.55 90.89-31.69 76.85-31.69 76.85-19.53 88.86-19.53Z" opacity="1" transform="matrix(1,0,0,1,0,0)" fill="#ffffff" class="wordmark-text-0" data-fill-palette-color="primary" id="text-0"></path></svg></g></svg></g></svg></g></svg></g></svg></g><g></g></svg></g><defs></defs></svg><rect width="395.5199999999999" height="161.49106001121703" fill="none" stroke="none" visibility="hidden"></rect></g></svg></g></svg>